<?xml version="1.0" standalone="no"?>
<!DOCTYPE svg PUBLIC "-//W3C//DTD SVG 20010904//EN"
 "http://www.w3.org/TR/2001/REC-SVG-20010904/DTD/svg10.dtd">
<svg version="1.0" xmlns="http://www.w3.org/2000/svg"
 width="140.000000pt" height="140.000000pt" viewBox="0 0 140.000000 140.000000"
 preserveAspectRatio="xMidYMid meet">
<metadata>
Created by potrace 1.15, written by Peter Selinger 2001-2017
</metadata>
<g transform="translate(0.000000,140.000000) scale(0.100000,-0.100000)"
fill="#000000" stroke="none">
<path d="M1390 802 l-5 -384 -26 -22 -27 -23 -583 -8 c-321 -4 -597 -9 -614
-10 -40 -3 -79 12 -102 37 -16 18 -19 46 -23 272 l-6 251 -2 -250 c-2 -275 -1
-279 58 -310 25 -13 118 -15 642 -15 654 0 642 -1 680 50 17 24 18 48 16 410
l-3 385 -5 -383z"/>
<path d="M700 1047 c0 -3 7 -21 15 -40 18 -44 19 -57 2 -33 -10 13 -24 17 -67
14 -52 -3 -55 -5 -61 -33 -4 -16 -7 -101 -8 -187 l-1 -158 55 0 54 0 3 117 3
118 42 -95 42 -95 41 0 42 0 37 87 c20 48 40 90 44 94 4 4 7 -45 7 -109 l0
-117 55 0 55 0 0 220 c0 140 -4 220 -10 220 -5 0 -11 -17 -11 -37 -1 -21 -3
-30 -6 -20 -3 13 -15 17 -48 17 -38 0 -44 3 -39 18 8 24 -92 -144 -107 -179
-6 -16 -15 -29 -18 -29 -4 0 -29 50 -56 111 -42 93 -65 135 -65 116z"/>
<path d="M1239 1045 c-1 -3 -3 -9 -4 -15 -1 -5 -3 -16 -4 -22 -1 -9 -3 -10 -9
-2 -12 19 -70 23 -78 5 -4 -9 -9 -103 -12 -208 l-4 -193 61 0 61 0 0 220 c0
121 -2 220 -5 220 -3 0 -6 -2 -6 -5z"/>
<path d="M465 1020 c65 -34 70 -42 39 -71 l-27 -24 17 27 c9 14 13 28 9 30 -4
2 -35 1 -68 -3 -33 -3 -52 -6 -43 -7 40 -4 21 -17 -25 -17 -29 0 -61 -4 -72
-9 l-20 -9 20 17 c19 16 18 17 -32 14 -44 -3 -50 -1 -40 12 11 13 10 13 -6 1
-10 -8 -32 -34 -48 -58 -59 -85 -31 -214 60 -278 36 -25 54 -30 116 -33 78 -4
128 12 184 59 l24 20 -38 39 c-21 22 -42 37 -47 34 -4 -3 -6 -10 -3 -15 3 -5
0 -6 -8 -3 -8 3 -18 0 -23 -7 -5 -8 -3 -10 6 -4 7 5 11 4 7 -1 -3 -5 -30 -10
-60 -12 -49 -3 -59 0 -87 25 -65 58 -44 170 36 192 39 11 90 -3 124 -34 18
-16 17 -16 74 52 18 21 17 22 -21 46 -21 14 -49 28 -63 31 -15 4 -9 -2 15 -14z"/>
<path d="M185 520 c4 -6 193 -10 536 -10 346 0 529 3 529 10 0 7 -185 10 -536
10 -354 0 -533 -3 -529 -10z"/>
<path d="M307 284 c-4 -4 -7 -16 -7 -26 0 -11 -7 -18 -20 -18 -13 0 -20 -7
-20 -20 0 -15 -7 -20 -25 -20 -16 0 -25 6 -25 15 0 8 -7 15 -16 15 -11 0 -14
-8 -12 -27 l3 -28 95 -2 c55 -1 96 -7 98 -13 2 -5 15 -10 29 -10 20 0 23 4 19
23 -3 12 -3 16 0 9 4 -9 53 -12 200 -12 l194 1 0 60 c0 46 -3 59 -15 59 -11 0
-15 -12 -15 -45 0 -43 -1 -45 -30 -45 -30 0 -37 13 -31 58 1 6 -5 12 -14 12
-14 0 -20 -16 -17 -52 1 -14 -6 -18 -33 -18 -31 0 -35 3 -41 35 -5 28 -11 35
-29 35 -18 0 -24 -7 -29 -35 -6 -30 -11 -35 -36 -35 -19 0 -31 6 -35 19 -8 25
-26 31 -69 24 -26 -4 -36 -11 -36 -24 0 -13 -7 -19 -24 -19 -22 0 -25 5 -28
42 -3 39 -16 57 -31 42z"/>
<path d="M1017 261 c-22 -37 -22 -40 6 -51 18 -7 13 -9 -25 -9 -50 -1 -56 6
-49 57 2 8 -5 12 -16 10 -13 -2 -18 -15 -21 -48 -2 -25 -8 -46 -13 -48 -19 -7
-8 -22 16 -22 14 0 25 5 25 10 0 6 27 10 60 10 33 0 60 -4 60 -10 0 -13 47
-13 52 0 2 5 32 11 68 12 62 3 65 4 68 29 4 34 -20 54 -47 39 -12 -6 -21 -17
-21 -25 0 -10 -10 -15 -30 -15 -24 0 -30 4 -30 21 0 14 -5 19 -17 17 -13 -2
-17 -11 -15 -30 2 -14 -2 -29 -7 -33 -7 -4 -11 6 -11 25 0 18 -6 33 -15 36
-12 5 -13 10 -4 20 10 13 5 34 -9 34 -4 0 -15 -13 -25 -29z"/>
</g>
</svg>
